ffmpeg started on 2025-05-29 at 15:46:58
Report written to "D:\Convert\FFMetrics\reports\psnr_report-6.txt"
Log level: 32
Command line:
ffmpeg -hide_banner -nostdin -i "G:\\\xc0\xed\xe8\xec\xe5\\\xce\xed\xe3\xee\xe8\xed\xe3\xe8\\!_36_\xce\xf1\xe5\xed\xfc_2024\\JamClub\\\xd0\xe0\xed\xec\xe0 1_2\\[JamClub] Ranma 1_2 - 04 [1080p]_HEVC.mkv" -i "G:\\\xc0\xed\xe8\xec\xe5\\\xce\xed\xe3\xee\xe8\xed\xe3\xe8\\!_36_\xce\xf1\xe5\xed\xfc_2024\\JamClub\\\xd0\xe0\xed\xec\xe0 1_2\\[JamClub] Ranma 1_2 - 04 [1080p].mp4" -lavfi "[0:v]settb=AVTB,setpts=PTS-STARTPTS,format=pix_fmts=yuv420p10,fps=24000/1001,scale=1920:1080:flags=bicubic[main];[1:v]settb=AVTB,setpts=PTS-STARTPTS,format=pix_fmts=yuv420p,fps=24000/1001,scale=1920:1080:flags=bicubic[ref];[main][ref]psnr=eof_action=endall:stats_file='D\\:/Convert/FFMetrics/logs/psnr_logfile-6.txt'" -f null -
Input #0, matroska,webm, from 'G:\Аниме\Онгоинги\!_36_Осень_2024\JamClub\Ранма 1_2\[JamClub] Ranma 1_2 - 04 [1080p]_HEVC.mkv':
  Metadata:
    COMPATIBLE_BRANDS: isomiso2avc1mp41
    MAJOR_BRAND     : isom
    MINOR_VERSION   : 512
    ENCODER         : Lavf61.7.100
  Duration: 00:23:04.71, start: -0.001000, bitrate: 2398 kb/s
  Stream #0:0: Video: hevc (Main 10), yuv420p10le(tv, bt709, progressive), 1920x1080 [SAR 1:1 DAR 16:9], 23.98 fps, 23.98 tbr, 1k tbn (default)
      Metadata:
        HANDLER_NAME    : VideoHandler
        VENDOR_ID       : [0][0][0][0]
        ENCODER         : Lavc61.19.100 libx265
        BPS             : 2201418
        DURATION        : 00:23:04.633708333
        NUMBER_OF_FRAMES: 33198
        NUMBER_OF_BYTES : 381019567
        _STATISTICS_WRITING_APP: mkvpropedit v66.0.0 ('Josie') 64-bit
        _STATISTICS_WRITING_DATE_UTC: 2025-05-29 07:11:24
        _STATISTICS_TAGS: BPS DURATION NUMBER_OF_FRAMES NUMBER_OF_BYTES
  Stream #0:1: Audio: aac (LC), 48000 Hz, stereo, fltp (default)
      Metadata:
        HANDLER_NAME    : SoundHandler
        VENDOR_ID       : [0][0][0][0]
        ENCODER         : Lavc61.19.100 aac
        BPS             : 193319
        DURATION        : 00:23:04.667000000
        NUMBER_OF_FRAMES: 64907
        NUMBER_OF_BYTES : 33460384
        _STATISTICS_WRITING_APP: mkvpropedit v66.0.0 ('Josie') 64-bit
        _STATISTICS_WRITING_DATE_UTC: 2025-05-29 07:11:24
        _STATISTICS_TAGS: BPS DURATION NUMBER_OF_FRAMES NUMBER_OF_BYTES
Input #1, mov,mp4,m4a,3gp,3g2,mj2, from 'G:\Аниме\Онгоинги\!_36_Осень_2024\JamClub\Ранма 1_2\[JamClub] Ranma 1_2 - 04 [1080p].mp4':
  Metadata:
    major_brand     : isom
    minor_version   : 512
    compatible_brands: isomiso2avc1mp41
    encoder         : Lavf60.16.100
  Duration: 00:23:04.69, start: 0.000000, bitrate: 5473 kb/s
  Stream #1:0[0x1](und): Video: h264 (High) (avc1 / 0x31637661), yuv420p(progressive), 1920x1080 [SAR 1:1 DAR 16:9], 5275 kb/s, 23.98 fps, 23.98 tbr, 90k tbn (default)
      Metadata:
        handler_name    : VideoHandler
        vendor_id       : [0][0][0][0]
  Stream #1:1[0x2](und): Audio: aac (LC) (mp4a / 0x6134706D), 48000 Hz, stereo, fltp, 192 kb/s (default)
      Metadata:
        handler_name    : SoundHandler
        vendor_id       : [0][0][0][0]
Stream mapping:
  Stream #0:0 (hevc) -> settb:default
  Stream #1:0 (h264) -> settb:default
  psnr:default -> Stream #0:0 (wrapped_avframe)
  Stream #0:1 -> #0:1 (aac (native) -> pcm_s16le (native))
[swscaler @ 0000020cfc5cbc80] No accelerated colorspace conversion found from yuv420p to bgr48le.
[swscaler @ 0000020cfc652040] No accelerated colorspace conversion found from yuv420p to bgr48le.
[swscaler @ 0000020cfc7fea40] No accelerated colorspace conversion found from yuv420p to bgr48le.
[swscaler @ 0000020cfc98b4c0] No accelerated colorspace conversion found from yuv420p to bgr48le.
[swscaler @ 0000020cfc9b7ac0] No accelerated colorspace conversion found from yuv420p to bgr48le.
[swscaler @ 0000020cfca50700] No accelerated colorspace conversion found from yuv420p to bgr48le.
[swscaler @ 0000020c8191a040] No accelerated colorspace conversion found from yuv420p to bgr48le.
[swscaler @ 0000020c81939b40] No accelerated colorspace conversion found from yuv420p to bgr48le.
[swscaler @ 0000020c81bbe040] No accelerated colorspace conversion found from yuv420p to bgr48le.
[swscaler @ 0000020c81c6f680] No accelerated colorspace conversion found from yuv420p to bgr48le.
[swscaler @ 0000020c81d55040] No accelerated colorspace conversion found from yuv420p to bgr48le.
[swscaler @ 0000020c82057040] No accelerated colorspace conversion found from yuv420p to bgr48le.
[swscaler @ 0000020c820cd040] No accelerated colorspace conversion found from yuv420p to bgr48le.
[swscaler @ 0000020c820e7000] No accelerated colorspace conversion found from yuv420p to bgr48le.
[swscaler @ 0000020c82309d00] No accelerated colorspace conversion found from yuv420p to bgr48le.
[swscaler @ 0000020c82489040] No accelerated colorspace conversion found from yuv420p to bgr48le.
Output #0, null, to 'pipe:':
  Metadata:
    COMPATIBLE_BRANDS: isomiso2avc1mp41
    MAJOR_BRAND     : isom
    MINOR_VERSION   : 512
    encoder         : Lavf61.7.100
  Stream #0:0: Video: wrapped_avframe, yuv420p10le(tv, bt709, progressive), 1920x1080 [SAR 1:1 DAR 16:9], q=2-31, 200 kb/s, 23.98 fps, 23.98 tbn
      Metadata:
        encoder         : Lavc61.19.100 wrapped_avframe
  Stream #0:1: Audio: pcm_s16le, 48000 Hz, stereo, s16, 1536 kb/s (default)
      Metadata:
        HANDLER_NAME    : SoundHandler
        VENDOR_ID       : [0][0][0][0]
        _STATISTICS_TAGS: BPS DURATION NUMBER_OF_FRAMES NUMBER_OF_BYTES
        BPS             : 193319
        DURATION        : 00:23:04.667000000
        NUMBER_OF_FRAMES: 64907
        NUMBER_OF_BYTES : 33460384
        _STATISTICS_WRITING_APP: mkvpropedit v66.0.0 ('Josie') 64-bit
        _STATISTICS_WRITING_DATE_UTC: 2025-05-29 07:11:24
        encoder         : Lavc61.19.100 pcm_s16le
frame=   28 fps=0.0 q=-0.0 size=N/A time=00:00:01.16 bitrate=N/A speed= 2.3x    frame=   67 fps= 65 q=-0.0 size=N/A time=00:00:02.79 bitrate=N/A speed= 2.7x    frame=   97 fps= 63 q=-0.0 size=N/A time=00:00:04.04 bitrate=N/A speed=2.62x    frame=  142 fps= 69 q=-0.0 size=N/A time=00:00:05.92 bitrate=N/A speed=2.87x    frame=  171 fps= 66 q=-0.0 size=N/A time=00:00:07.13 bitrate=N/A speed=2.77x    frame=  215 fps= 69 q=-0.0 size=N/A time=00:00:08.96 bitrate=N/A speed= 2.9x    frame=  256 fps= 71 q=-0.0 size=N/A time=00:00:10.67 bitrate=N/A speed=2.96x    frame=  295 fps= 72 q=-0.0 size=N/A time=00:00:12.30 bitrate=N/A speed=2.98x    frame=  333 fps= 72 q=-0.0 size=N/A time=00:00:13.88 bitrate=N/A speed=   3x    [fc#0 @ 0000020ce46b0940] Reconfiguring filter graph because video parameters changed to yuv420p(tv, bt709), 1920x1080
[Parsed_psnr_10 @ 0000020ce476ad80] PSNR y:43.926581 u:47.326134 v:47.564681 average:44.815149 min:37.950581 max:47.452895
[null @ 0000020ce46e4100] Application provided invalid, non monotonically increasing dts to muxer in stream 0: 345 >= 0
[null @ 0000020ce46e4100] Application provided invalid, non monotonically increasing dts to muxer in stream 0: 345 >= 1
[null @ 0000020ce46e4100] Application provided invalid, non monotonically increasing dts to muxer in stream 0: 345 >= 2
[null @ 0000020ce46e4100] Application provided invalid, non monotonically increasing dts to muxer in stream 0: 345 >= 3
[null @ 0000020ce46e4100] Application provided invalid, non monotonically increasing dts to muxer in stream 0: 345 >= 4
[null @ 0000020ce46e4100] Application provided invalid, non monotonically increasing dts to muxer in stream 0: 345 >= 5
[null @ 0000020ce46e4100] Application provided invalid, non monotonically increasing dts to muxer in stream 0: 345 >= 6
[null @ 0000020ce46e4100] Application provided invalid, non monotonically increasing dts to muxer in stream 0: 345 >= 7
[null @ 0000020ce46e4100] Application provided invalid, non monotonically increasing dts to muxer in stream 0: 345 >= 8
[null @ 0000020ce46e4100] Application provided invalid, non monotonically increasing dts to muxer in stream 0: 345 >= 9
[null @ 0000020ce46e4100] Application provided invalid, non monotonically increasing dts to muxer in stream 0: 345 >= 10
[null @ 0000020ce46e4100] Application provided invalid, non monotonically increasing dts to muxer in stream 0: 345 >= 11
[null @ 0000020ce46e4100] Application provided invalid, non monotonically increasing dts to muxer in stream 0: 345 >= 12
[null @ 0000020ce46e4100] Application provided invalid, non monotonically increasing dts to muxer in stream 0: 345 >= 13
[null @ 0000020ce46e4100] Application provided invalid, non monotonically increasing dts to muxer in stream 0: 345 >= 14
[null @ 0000020ce46e4100] Application provided invalid, non monotonically increasing dts to muxer in stream 0: 345 >= 15
[null @ 0000020ce46e4100] Application provided invalid, non monotonically increasing dts to muxer in stream 0: 345 >= 16
[null @ 0000020ce46e4100] Application provided invalid, non monotonically increasing dts to muxer in stream 0: 345 >= 17
[null @ 0000020ce46e4100] Application provided invalid, non monotonically increasing dts to muxer in stream 0: 345 >= 18
[null @ 0000020ce46e4100] Application provided invalid, non monotonically increasing dts to muxer in stream 0: 345 >= 19
[null @ 0000020ce46e4100] Application provided invalid, non monotonically increasing dts to muxer in stream 0: 345 >= 20
[null @ 0000020ce46e4100] Application provided invalid, non monotonically increasing dts to muxer in stream 0: 345 >= 21
[null @ 0000020ce46e4100] Application provided invalid, non monotonically increasing dts to muxer in stream 0: 345 >= 22
[null @ 0000020ce46e4100] Application provided invalid, non monotonically increasing dts to muxer in stream 0: 345 >= 23
[null @ 0000020ce46e4100] Application provided invalid, non monotonically increasing dts to muxer in stream 0: 345 >= 24
[null @ 0000020ce46e4100] Application provided invalid, non monotonically increasing dts to muxer in stream 0: 345 >= 25
[null @ 0000020ce46e4100] Application provided invalid, non monotonically increasing dts to muxer in stream 0: 345 >= 26
[null @ 0000020ce46e4100] Application provided invalid, non monotonically increasing dts to muxer in stream 0: 345 >= 27
[null @ 0000020ce46e4100] Application provided invalid, non monotonically increasing dts to muxer in stream 0: 345 >= 28
[null @ 0000020ce46e4100] Application provided invalid, non monotonically increasing dts to muxer in stream 0: 345 >= 29
[null @ 0000020ce46e4100] Application provided invalid, non monotonically increasing dts to muxer in stream 0: 345 >= 30
[null @ 0000020ce46e4100] Application provided invalid, non monotonically increasing dts to muxer in stream 0: 345 >= 31
[null @ 0000020ce46e4100] Application provided invalid, non monotonically increasing dts to muxer in stream 0: 345 >= 32
[null @ 0000020ce46e4100] Application provided invalid, non monotonically increasing dts to muxer in stream 0: 345 >= 33
[null @ 0000020ce46e4100] Application provided invalid, non monotonically increasing dts to muxer in stream 0: 345 >= 34
[null @ 0000020ce46e4100] Application provided invalid, non monotonically increasing dts to muxer in stream 0: 345 >= 35
[null @ 0000020ce46e4100] Application provided invalid, non monotonically increasing dts to muxer in stream 0: 345 >= 36
[null @ 0000020ce46e4100] Application provided invalid, non monotonically increasing dts to muxer in stream 0: 345 >= 37
[null @ 0000020ce46e4100] Application provided invalid, non monotonically increasing dts to muxer in stream 0: 345 >= 38
[null @ 0000020ce46e4100] Application provided invalid, non monotonically increasing dts to muxer in stream 0: 345 >= 39
[null @ 0000020ce46e4100] Application provided invalid, non monotonically increasing dts to muxer in stream 0: 345 >= 40
[null @ 0000020ce46e4100] Application provided invalid, non monotonically increasing dts to muxer in stream 0: 345 >= 41
[null @ 0000020ce46e4100] Application provided invalid, non monotonically increasing dts to muxer in stream 0: 345 >= 42
[null @ 0000020ce46e4100] Application provided invalid, non monotonically increasing dts to muxer in stream 0: 345 >= 43
[null @ 0000020ce46e4100] Application provided invalid, non monotonically increasing dts to muxer in stream 0: 345 >= 44
[null @ 0000020ce46e4100] Application provided invalid, non monotonically increasing dts to muxer in stream 0: 345 >= 45
[null @ 0000020ce46e4100] Application provided invalid, non monotonically increasing dts to muxer in stream 0: 345 >= 46
[null @ 0000020ce46e4100] Application provided invalid, non monotonically increasing dts to muxer in stream 0: 345 >= 47
[null @ 0000020ce46e4100] Application provided invalid, non monotonically increasing dts to muxer in stream 0: 345 >= 48
[null @ 0000020ce46e4100] Application provided invalid, non monotonically increasing dts to muxer in stream 0: 345 >= 49
[null @ 0000020ce46e4100] Application provided invalid, non monotonically increasing dts to muxer in stream 0: 345 >= 50
[null @ 0000020ce46e4100] Application provided invalid, non monotonically increasing dts to muxer in stream 0: 345 >= 51
[null @ 0000020ce46e4100] Application provided invalid, non monotonically increasing dts to muxer in stream 0: 345 >= 52
[null @ 0000020ce46e4100] Application provided invalid, non monotonically increasing dts to muxer in stream 0: 345 >= 53
[null @ 0000020ce46e4100] Application provided invalid, non monotonically increasing dts to muxer in stream 0: 345 >= 54
[null @ 0000020ce46e4100] Application provided invalid, non monotonically increasing dts to muxer in stream 0: 345 >= 55
[null @ 0000020ce46e4100] Application provided invalid, non monotonically increasing dts to muxer in stream 0: 345 >= 56
[null @ 0000020ce46e4100] Application provided invalid, non monotonically increasing dts to muxer in stream 0: 345 >= 57
[null @ 0000020ce46e4100] Application provided invalid, non monotonically increasing dts to muxer in stream 0: 345 >= 58
[null @ 0000020ce46e4100] Application provided invalid, non monotonically increasing dts to muxer in stream 0: 345 >= 59
[null @ 0000020ce46e4100] Application provided invalid, non monotonically increasing dts to muxer in stream 0: 345 >= 60
[null @ 0000020ce46e4100] Application provided invalid, non monotonically increasing dts to muxer in stream 0: 345 >= 61
[null @ 0000020ce46e4100] Application provided invalid, non monotonically increasing dts to muxer in stream 0: 345 >= 62
[null @ 0000020ce46e4100] Application provided invalid, non monotonically increasing dts to muxer in stream 0: 345 >= 63
[null @ 0000020ce46e4100] Application provided invalid, non monotonically increasing dts to muxer in stream 0: 345 >= 64
[null @ 0000020ce46e4100] Application provided invalid, non monotonically increasing dts to muxer in stream 0: 345 >= 65
[null @ 0000020ce46e4100] Application provided invalid, non monotonically increasing dts to muxer in stream 0: 345 >= 66
[null @ 0000020ce46e4100] Application provided invalid, non monotonically increasing dts to muxer in stream 0: 345 >= 67
[null @ 0000020ce46e4100] Application provided invalid, non monotonically increasing dts to muxer in stream 0: 345 >= 68
[null @ 0000020ce46e4100] Application provided invalid, non monotonically increasing dts to muxer in stream 0: 345 >= 69
[null @ 0000020ce46e4100] Application provided invalid, non monotonically increasing dts to muxer in stream 0: 345 >= 70
[null @ 0000020ce46e4100] Application provided invalid, non monotonically increasing dts to muxer in stream 0: 345 >= 71
[null @ 0000020ce46e4100] Application provided invalid, non monotonically increasing dts to muxer in stream 0: 345 >= 72
[null @ 0000020ce46e4100] Application provided invalid, non monotonically increasing dts to muxer in stream 0: 345 >= 73
[null @ 0000020ce46e4100] Application provided invalid, non monotonically increasing dts to muxer in stream 0: 345 >= 74
[null @ 0000020ce46e4100] Application provided invalid, non monotonically increasing dts to muxer in stream 0: 345 >= 75
[null @ 0000020ce46e4100] Application provided invalid, non monotonically increasing dts to muxer in stream 0: 345 >= 76
[null @ 0000020ce46e4100] Application provided invalid, non monotonically increasing dts to muxer in stream 0: 345 >= 77
[null @ 0000020ce46e4100] Application provided invalid, non monotonically increasing dts to muxer in stream 0: 345 >= 78
[null @ 0000020ce46e4100] Application provided invalid, non monotonically increasing dts to muxer in stream 0: 345 >= 79
[null @ 0000020ce46e4100] Application provided invalid, non monotonically increasing dts to muxer in stream 0: 345 >= 80
[null @ 0000020ce46e4100] Application provided invalid, non monotonically increasing dts to muxer in stream 0: 345 >= 81
[null @ 0000020ce46e4100] Application provided invalid, non monotonically increasing dts to muxer in stream 0: 345 >= 82
[null @ 0000020ce46e4100] Application provided invalid, non monotonically increasing dts to muxer in stream 0: 345 >= 83
[null @ 0000020ce46e4100] Application provided invalid, non monotonically increasing dts to muxer in stream 0: 345 >= 84
[null @ 0000020ce46e4100] Application provided invalid, non monotonically increasing dts to muxer in stream 0: 345 >= 85
[null @ 0000020ce46e4100] Application provided invalid, non monotonically increasing dts to muxer in stream 0: 345 >= 86
[null @ 0000020ce46e4100] Application provided invalid, non monotonically increasing dts to muxer in stream 0: 345 >= 87
[null @ 0000020ce46e4100] Application provided invalid, non monotonically increasing dts to muxer in stream 0: 345 >= 88
[null @ 0000020ce46e4100] Application provided invalid, non monotonically increasing dts to muxer in stream 0: 345 >= 89
[null @ 0000020ce46e4100] Application provided invalid, non monotonically increasing dts to muxer in stream 0: 345 >= 90
[null @ 0000020ce46e4100] Application provided invalid, non monotonically increasing dts to muxer in stream 0: 345 >= 91
[null @ 0000020ce46e4100] Application provided invalid, non monotonically increasing dts to muxer in stream 0: 345 >= 92
[null @ 0000020ce46e4100] Application provided invalid, non monotonically increasing dts to muxer in stream 0: 345 >= 93
[null @ 0000020ce46e4100] Application provided invalid, non monotonically increasing dts to muxer in stream 0: 345 >= 94
[null @ 0000020ce46e4100] Application provided invalid, non monotonically increasing dts to muxer in stream 0: 345 >= 95
[null @ 0000020ce46e4100] Application provided invalid, non monotonically increasing dts to muxer in stream 0: 345 >= 96
[null @ 0000020ce46e4100] Application provided invalid, non monotonically increasing dts to muxer in stream 0: 345 >= 97
[null @ 0000020ce46e4100] Application provided invalid, non monotonically increasing dts to muxer in stream 0: 345 >= 98
[null @ 0000020ce46e4100] Application provided invalid, non monotonically increasing dts to muxer in stream 0: 345 >= 99
[null @ 0000020ce46e4100] Application provided invalid, non monotonically increasing dts to muxer in stream 0: 345 >= 100
[null @ 0000020ce46e4100] Application provided invalid, non monotonically increasing dts to muxer in stream 0: 345 >= 101
[null @ 0000020ce46e4100] Application provided invalid, non monotonically increasing dts to muxer in stream 0: 345 >= 102
[null @ 0000020ce46e4100] Application provided invalid, non monotonically increasing dts to muxer in stream 0: 345 >= 103
[null @ 0000020ce46e4100] Application provided invalid, non monotonically increasing dts to muxer in stream 0: 345 >= 104
[null @ 0000020ce46e4100] Application provided invalid, non monotonically increasing dts to muxer in stream 0: 345 >= 105
[null @ 0000020ce46e4100] Application provided invalid, non monotonically increasing dts to muxer in stream 0: 345 >= 106
[null @ 0000020ce46e4100] Application provided invalid, non monotonically increasing dts to muxer in stream 0: 345 >= 107
[null @ 0000020ce46e4100] Application provided invalid, non monotonically increasing dts to muxer in stream 0: 345 >= 108
[null @ 0000020ce46e4100] Application provided invalid, non monotonically increasing dts to muxer in stream 0: 345 >= 109
[null @ 0000020ce46e4100] Application provided invalid, non monotonically increasing dts to muxer in stream 0: 345 >= 110
[null @ 0000020ce46e4100] Application provided invalid, non monotonically increasing dts to muxer in stream 0: 345 >= 111
[null @ 0000020ce46e4100] Application provided invalid, non monotonically increasing dts to muxer in stream 0: 345 >= 112
[null @ 0000020ce46e4100] Application provided invalid, non monotonically increasing dts to muxer in stream 0: 345 >= 113
[null @ 0000020ce46e4100] Application provided invalid, non monotonically increasing dts to muxer in stream 0: 345 >= 114
[null @ 0000020ce46e4100] Application provided invalid, non monotonically increasing dts to muxer in stream 0: 345 >= 115
[null @ 0000020ce46e4100] Application provided invalid, non monotonically increasing dts to muxer in stream 0: 345 >= 116
[null @ 0000020ce46e4100] Application provided invalid, non monotonically increasing dts to muxer in stream 0: 345 >= 117
[null @ 0000020ce46e4100] Application provided invalid, non monotonically increasing dts to muxer in stream 0: 345 >= 118
[null @ 0000020ce46e4100] Application provided invalid, non monotonically increasing dts to muxer in stream 0: 345 >= 119
[null @ 0000020ce46e4100] Application provided invalid, non monotonically increasing dts to muxer in stream 0: 345 >= 120
[null @ 0000020ce46e4100] Application provided invalid, non monotonically increasing dts to muxer in stream 0: 345 >= 121
[null @ 0000020ce46e4100] Application provided invalid, non monotonically increasing dts to muxer in stream 0: 345 >= 122
[null @ 0000020ce46e4100] Application provided invalid, non monotonically increasing dts to muxer in stream 0: 345 >= 123
[null @ 0000020ce46e4100] Application provided invalid, non monotonically increasing dts to muxer in stream 0: 345 >= 124
[null @ 0000020ce46e4100] Application provided invalid, non monotonically increasing dts to muxer in stream 0: 345 >= 125
[null @ 0000020ce46e4100] Application provided invalid, non monotonically increasing dts to muxer in stream 0: 345 >= 126
[null @ 0000020ce46e4100] Application provided invalid, non monotonically increasing dts to muxer in stream 0: 345 >= 127
[null @ 0000020ce46e4100] Application provided invalid, non monotonically increasing dts to muxer in stream 0: 345 >= 128
[null @ 0000020ce46e4100] Application provided invalid, non monotonically increasing dts to muxer in stream 0: 345 >= 129
[null @ 0000020ce46e4100] Application provided invalid, non monotonically increasing dts to muxer in stream 0: 345 >= 130
[null @ 0000020ce46e4100] Application provided invalid, non monotonically increasing dts to muxer in stream 0: 345 >= 131
[null @ 0000020ce46e4100] Application provided invalid, non monotonically increasing dts to muxer in stream 0: 345 >= 132
[null @ 0000020ce46e4100] Application provided invalid, non monotonically increasing dts to muxer in stream 0: 345 >= 133
[null @ 0000020ce46e4100] Application provided invalid, non monotonically increasing dts to muxer in stream 0: 345 >= 134
[null @ 0000020ce46e4100] Application provided invalid, non monotonically increasing dts to muxer in stream 0: 345 >= 135
[null @ 0000020ce46e4100] Application provided invalid, non monotonically increasing dts to muxer in stream 0: 345 >= 136
[null @ 0000020ce46e4100] Application provided invalid, non monotonically increasing dts to muxer in stream 0: 345 >= 137
[null @ 0000020ce46e4100] Application provided invalid, non monotonically increasing dts to muxer in stream 0: 345 >= 138
[null @ 0000020ce46e4100] Application provided invalid, non monotonically increasing dts to muxer in stream 0: 345 >= 139
[null @ 0000020ce46e4100] Application provided invalid, non monotonically increasing dts to muxer in stream 0: 345 >= 140
[null @ 0000020ce46e4100] Application provided invalid, non monotonically increasing dts to muxer in stream 0: 345 >= 141
[null @ 0000020ce46e4100] Application provided invalid, non monotonically increasing dts to muxer in stream 0: 345 >= 142
[null @ 0000020ce46e4100] Application provided invalid, non monotonically increasing dts to muxer in stream 0: 345 >= 143
frame=  490 fps= 95 q=-0.0 size=N/A time=00:00:06.00 bitrate=N/A speed=1.17x    [null @ 0000020ce46e4100] Application provided invalid, non monotonically increasing dts to muxer in stream 0: 345 >= 144
[null @ 0000020ce46e4100] Application provided invalid, non monotonically increasing dts to muxer in stream 0: 345 >= 145
[null @ 0000020ce46e4100] Application provided invalid, non monotonically increasing dts to muxer in stream 0: 345 >= 146
[null @ 0000020ce46e4100] Application provided invalid, non monotonically increasing dts to muxer in stream 0: 345 >= 147
[null @ 0000020ce46e4100] Application provided invalid, non monotonically increasing dts to muxer in stream 0: 345 >= 148
[null @ 0000020ce46e4100] Application provided invalid, non monotonically increasing dts to muxer in stream 0: 345 >= 149
[null @ 0000020ce46e4100] Application provided invalid, non monotonically increasing dts to muxer in stream 0: 345 >= 150
[null @ 0000020ce46e4100] Application provided invalid, non monotonically increasing dts to muxer in stream 0: 345 >= 151
[null @ 0000020ce46e4100] Application provided invalid, non monotonically increasing dts to muxer in stream 0: 345 >= 152
[null @ 0000020ce46e4100] Application provided invalid, non monotonically increasing dts to muxer in stream 0: 345 >= 153
[null @ 0000020ce46e4100] Application provided invalid, non monotonically increasing dts to muxer in stream 0: 345 >= 154
[null @ 0000020ce46e4100] Application provided invalid, non monotonically increasing dts to muxer in stream 0: 345 >= 155
[null @ 0000020ce46e4100] Application provided invalid, non monotonically increasing dts to muxer in stream 0: 345 >= 156
[null @ 0000020ce46e4100] Application provided invalid, non monotonically increasing dts to muxer in stream 0: 345 >= 157
[null @ 0000020ce46e4100] Application provided invalid, non monotonically increasing dts to muxer in stream 0: 345 >= 158
[null @ 0000020ce46e4100] Application provided invalid, non monotonically increasing dts to muxer in stream 0: 345 >= 159
[null @ 0000020ce46e4100] Application provided invalid, non monotonically increasing dts to muxer in stream 0: 345 >= 160
[null @ 0000020ce46e4100] Application provided invalid, non monotonically increasing dts to muxer in stream 0: 345 >= 161
[null @ 0000020ce46e4100] Application provided invalid, non monotonically increasing dts to muxer in stream 0: 345 >= 162
[null @ 0000020ce46e4100] Application provided invalid, non monotonically increasing dts to muxer in stream 0: 345 >= 163
[null @ 0000020ce46e4100] Application provided invalid, non monotonically increasing dts to muxer in stream 0: 345 >= 164
[null @ 0000020ce46e4100] Application provided invalid, non monotonically increasing dts to muxer in stream 0: 345 >= 165
[null @ 0000020ce46e4100] Application provided invalid, non monotonically increasing dts to muxer in stream 0: 345 >= 166
[null @ 0000020ce46e4100] Application provided invalid, non monotonically increasing dts to muxer in stream 0: 345 >= 167
[null @ 0000020ce46e4100] Application provided invalid, non monotonically increasing dts to muxer in stream 0: 345 >= 168
[null @ 0000020ce46e4100] Application provided invalid, non monotonically increasing dts to muxer in stream 0: 345 >= 169
[null @ 0000020ce46e4100] Application provided invalid, non monotonically increasing dts to muxer in stream 0: 345 >= 170
[null @ 0000020ce46e4100] Application provided invalid, non monotonically increasing dts to muxer in stream 0: 345 >= 171
[null @ 0000020ce46e4100] Application provided invalid, non monotonically increasing dts to muxer in stream 0: 345 >= 172
[null @ 0000020ce46e4100] Application provided invalid, non monotonically increasing dts to muxer in stream 0: 345 >= 173
[null @ 0000020ce46e4100] Application provided invalid, non monotonically increasing dts to muxer in stream 0: 345 >= 174
[null @ 0000020ce46e4100] Application provided invalid, non monotonically increasing dts to muxer in stream 0: 345 >= 175
[null @ 0000020ce46e4100] Application provided invalid, non monotonically increasing dts to muxer in stream 0: 345 >= 176
[null @ 0000020ce46e4100] Application provided invalid, non monotonically increasing dts to muxer in stream 0: 345 >= 177
[null @ 0000020ce46e4100] Application provided invalid, non monotonically increasing dts to muxer in stream 0: 345 >= 178
[null @ 0000020ce46e4100] Application provided invalid, non monotonically increasing dts to muxer in stream 0: 345 >= 179
[null @ 0000020ce46e4100] Application provided invalid, non monotonically increasing dts to muxer in stream 0: 345 >= 180
[null @ 0000020ce46e4100] Application provided invalid, non monotonically increasing dts to muxer in stream 0: 345 >= 181
[null @ 0000020ce46e4100] Application provided invalid, non monotonically increasing dts to muxer in stream 0: 345 >= 182
[null @ 0000020ce46e4100] Application provided invalid, non monotonically increasing dts to muxer in stream 0: 345 >= 183
[null @ 0000020ce46e4100] Application provided invalid, non monotonically increasing dts to muxer in stream 0: 345 >= 184
[null @ 0000020ce46e4100] Application provided invalid, non monotonically increasing dts to muxer in stream 0: 345 >= 185
[null @ 0000020ce46e4100] Application provided invalid, non monotonically increasing dts to muxer in stream 0: 345 >= 186
[null @ 0000020ce46e4100] Application provided invalid, non monotonically increasing dts to muxer in stream 0: 345 >= 187
[null @ 0000020ce46e4100] Application provided invalid, non monotonically increasing dts to muxer in stream 0: 345 >= 188
[null @ 0000020ce46e4100] Application provided invalid, non monotonically increasing dts to muxer in stream 0: 345 >= 189
[null @ 0000020ce46e4100] Application provided invalid, non monotonically increasing dts to muxer in stream 0: 345 >= 190
[null @ 0000020ce46e4100] Application provided invalid, non monotonically increasing dts to muxer in stream 0: 345 >= 191
[null @ 0000020ce46e4100] Application provided invalid, non monotonically increasing dts to muxer in stream 0: 345 >= 192
[null @ 0000020ce46e4100] Application provided invalid, non monotonically increasing dts to muxer in stream 0: 345 >= 193
[null @ 0000020ce46e4100] Application provided invalid, non monotonically increasing dts to muxer in stream 0: 345 >= 194
[null @ 0000020ce46e4100] Application provided invalid, non monotonically increasing dts to muxer in stream 0: 345 >= 195
[null @ 0000020ce46e4100] Application provided invalid, non monotonically increasing dts to muxer in stream 0: 345 >= 196
[null @ 0000020ce46e4100] Application provided invalid, non monotonically increasing dts to muxer in stream 0: 345 >= 197
[null @ 0000020ce46e4100] Application provided invalid, non monotonically increasing dts to muxer in stream 0: 345 >= 198
[null @ 0000020ce46e4100] Application provided invalid, non monotonically increasing dts to muxer in stream 0: 345 >= 199
[null @ 0000020ce46e4100] Application provided invalid, non monotonically increasing dts to muxer in stream 0: 345 >= 200
[null @ 0000020ce46e4100] Application provided invalid, non monotonically increasing dts to muxer in stream 0: 345 >= 201
[null @ 0000020ce46e4100] Application provided invalid, non monotonically increasing dts to muxer in stream 0: 345 >= 202
[null @ 0000020ce46e4100] Application provided invalid, non monotonically increasing dts to muxer in stream 0: 345 >= 203
[null @ 0000020ce46e4100] Application provided invalid, non monotonically increasing dts to muxer in stream 0: 345 >= 204
[null @ 0000020ce46e4100] Application provided invalid, non monotonically increasing dts to muxer in stream 0: 345 >= 205
[null @ 0000020ce46e4100] Application provided invalid, non monotonically increasing dts to muxer in stream 0: 345 >= 206
[null @ 0000020ce46e4100] Application provided invalid, non monotonically increasing dts to muxer in stream 0: 345 >= 207
[null @ 0000020ce46e4100] Application provided invalid, non monotonically increasing dts to muxer in stream 0: 345 >= 208
[null @ 0000020ce46e4100] Application provided invalid, non monotonically increasing dts to muxer in stream 0: 345 >= 209
[null @ 0000020ce46e4100] Application provided invalid, non monotonically increasing dts to muxer in stream 0: 345 >= 210
[null @ 0000020ce46e4100] Application provided invalid, non monotonically increasing dts to muxer in stream 0: 345 >= 211
[null @ 0000020ce46e4100] Application provided invalid, non monotonically increasing dts to muxer in stream 0: 345 >= 212
[null @ 0000020ce46e4100] Application provided invalid, non monotonically increasing dts to muxer in stream 0: 345 >= 213
[null @ 0000020ce46e4100] Application provided invalid, non monotonically increasing dts to muxer in stream 0: 345 >= 214
[null @ 0000020ce46e4100] Application provided invalid, non monotonically increasing dts to muxer in stream 0: 345 >= 215
[null @ 0000020ce46e4100] Application provided invalid, non monotonically increasing dts to muxer in stream 0: 345 >= 216
[null @ 0000020ce46e4100] Application provided invalid, non monotonically increasing dts to muxer in stream 0: 345 >= 217
[null @ 0000020ce46e4100] Application provided invalid, non monotonically increasing dts to muxer in stream 0: 345 >= 218
[null @ 0000020ce46e4100] Application provided invalid, non monotonically increasing dts to muxer in stream 0: 345 >= 219
[null @ 0000020ce46e4100] Application provided invalid, non monotonically increasing dts to muxer in stream 0: 345 >= 220
[null @ 0000020ce46e4100] Application provided invalid, non monotonically increasing dts to muxer in stream 0: 345 >= 221
[null @ 0000020ce46e4100] Application provided invalid, non monotonically increasing dts to muxer in stream 0: 345 >= 222
[null @ 0000020ce46e4100] Application provided invalid, non monotonically increasing dts to muxer in stream 0: 345 >= 223
[null @ 0000020ce46e4100] Application provided invalid, non monotonically increasing dts to muxer in stream 0: 345 >= 224
[null @ 0000020ce46e4100] Application provided invalid, non monotonically increasing dts to muxer in stream 0: 345 >= 225
[null @ 0000020ce46e4100] Application provided invalid, non monotonically increasing dts to muxer in stream 0: 345 >= 226
[null @ 0000020ce46e4100] Application provided invalid, non monotonically increasing dts to muxer in stream 0: 345 >= 227
[null @ 0000020ce46e4100] Application provided invalid, non monotonically increasing dts to muxer in stream 0: 345 >= 228
[null @ 0000020ce46e4100] Application provided invalid, non monotonically increasing dts to muxer in stream 0: 345 >= 229
[null @ 0000020ce46e4100] Application provided invalid, non monotonically increasing dts to muxer in stream 0: 345 >= 230
[null @ 0000020ce46e4100] Application provided invalid, non monotonically increasing dts to muxer in stream 0: 345 >= 231
[null @ 0000020ce46e4100] Application provided invalid, non monotonically increasing dts to muxer in stream 0: 345 >= 232
[null @ 0000020ce46e4100] Application provided invalid, non monotonically increasing dts to muxer in stream 0: 345 >= 233
[null @ 0000020ce46e4100] Application provided invalid, non monotonically increasing dts to muxer in stream 0: 345 >= 234
[null @ 0000020ce46e4100] Application provided invalid, non monotonically increasing dts to muxer in stream 0: 345 >= 235
[null @ 0000020ce46e4100] Application provided invalid, non monotonically increasing dts to muxer in stream 0: 345 >= 236
[null @ 0000020ce46e4100] Application provided invalid, non monotonically increasing dts to muxer in stream 0: 345 >= 237
[null @ 0000020ce46e4100] Application provided invalid, non monotonically increasing dts to muxer in stream 0: 345 >= 238
[null @ 0000020ce46e4100] Application provided invalid, non monotonically increasing dts to muxer in stream 0: 345 >= 239
[null @ 0000020ce46e4100] Application provided invalid, non monotonically increasing dts to muxer in stream 0: 345 >= 240
[null @ 0000020ce46e4100] Application provided invalid, non monotonically increasing dts to muxer in stream 0: 345 >= 241
[null @ 0000020ce46e4100] Application provided invalid, non monotonically increasing dts to muxer in stream 0: 345 >= 242
[null @ 0000020ce46e4100] Application provided invalid, non monotonically increasing dts to muxer in stream 0: 345 >= 243
[null @ 0000020ce46e4100] Application provided invalid, non monotonically increasing dts to muxer in stream 0: 345 >= 244
[null @ 0000020ce46e4100] Application provided invalid, non monotonically increasing dts to muxer in stream 0: 345 >= 245
[null @ 0000020ce46e4100] Application provided invalid, non monotonically increasing dts to muxer in stream 0: 345 >= 246
[null @ 0000020ce46e4100] Application provided invalid, non monotonically increasing dts to muxer in stream 0: 345 >= 247
[null @ 0000020ce46e4100] Application provided invalid, non monotonically increasing dts to muxer in stream 0: 345 >= 248
[null @ 0000020ce46e4100] Application provided invalid, non monotonically increasing dts to muxer in stream 0: 345 >= 249
[null @ 0000020ce46e4100] Application provided invalid, non monotonically increasing dts to muxer in stream 0: 345 >= 250
[null @ 0000020ce46e4100] Application provided invalid, non monotonically increasing dts to muxer in stream 0: 345 >= 251
[null @ 0000020ce46e4100] Application provided invalid, non monotonically increasing dts to muxer in stream 0: 345 >= 252
[null @ 0000020ce46e4100] Application provided invalid, non monotonically increasing dts to muxer in stream 0: 345 >= 253
[null @ 0000020ce46e4100] Application provided invalid, non monotonically increasing dts to muxer in stream 0: 345 >= 254
[null @ 0000020ce46e4100] Application provided invalid, non monotonically increasing dts to muxer in stream 0: 345 >= 255
[null @ 0000020ce46e4100] Application provided invalid, non monotonically increasing dts to muxer in stream 0: 345 >= 256
[null @ 0000020ce46e4100] Application provided invalid, non monotonically increasing dts to muxer in stream 0: 345 >= 257
[null @ 0000020ce46e4100] Application provided invalid, non monotonically increasing dts to muxer in stream 0: 345 >= 258
[null @ 0000020ce46e4100] Application provided invalid, non monotonically increasing dts to muxer in stream 0: 345 >= 259
[null @ 0000020ce46e4100] Application provided invalid, non monotonically increasing dts to muxer in stream 0: 345 >= 260
[null @ 0000020ce46e4100] Application provided invalid, non monotonically increasing dts to muxer in stream 0: 345 >= 261
[null @ 0000020ce46e4100] Application provided invalid, non monotonically increasing dts to muxer in stream 0: 345 >= 262
[null @ 0000020ce46e4100] Application provided invalid, non monotonically increasing dts to muxer in stream 0: 345 >= 263
[null @ 0000020ce46e4100] Application provided invalid, non monotonically increasing dts to muxer in stream 0: 345 >= 264
[null @ 0000020ce46e4100] Application provided invalid, non monotonically increasing dts to muxer in stream 0: 345 >= 265
[null @ 0000020ce46e4100] Application provided invalid, non monotonically increasing dts to muxer in stream 0: 345 >= 266
[null @ 0000020ce46e4100] Application provided invalid, non monotonically increasing dts to muxer in stream 0: 345 >= 267
[null @ 0000020ce46e4100] Application provided invalid, non monotonically increasing dts to muxer in stream 0: 345 >= 268
[null @ 0000020ce46e4100] Application provided invalid, non monotonically increasing dts to muxer in stream 0: 345 >= 269
[null @ 0000020ce46e4100] Application provided invalid, non monotonically increasing dts to muxer in stream 0: 345 >= 270
[null @ 0000020ce46e4100] Application provided invalid, non monotonically increasing dts to muxer in stream 0: 345 >= 271
[null @ 0000020ce46e4100] Application provided invalid, non monotonically increasing dts to muxer in stream 0: 345 >= 272
[null @ 0000020ce46e4100] Application provided invalid, non monotonically increasing dts to muxer in stream 0: 345 >= 273
[null @ 0000020ce46e4100] Application provided invalid, non monotonically increasing dts to muxer in stream 0: 345 >= 274
[null @ 0000020ce46e4100] Application provided invalid, non monotonically increasing dts to muxer in stream 0: 345 >= 275
[null @ 0000020ce46e4100] Application provided invalid, non monotonically increasing dts to muxer in stream 0: 345 >= 276
[null @ 0000020ce46e4100] Application provided invalid, non monotonically increasing dts to muxer in stream 0: 345 >= 277
[null @ 0000020ce46e4100] Application provided invalid, non monotonically increasing dts to muxer in stream 0: 345 >= 278
[null @ 0000020ce46e4100] Application provided invalid, non monotonically increasing dts to muxer in stream 0: 345 >= 279
[null @ 0000020ce46e4100] Application provided invalid, non monotonically increasing dts to muxer in stream 0: 345 >= 280
[null @ 0000020ce46e4100] Application provided invalid, non monotonically increasing dts to muxer in stream 0: 345 >= 281
[null @ 0000020ce46e4100] Application provided invalid, non monotonically increasing dts to muxer in stream 0: 345 >= 282
[null @ 0000020ce46e4100] Application provided invalid, non monotonically increasing dts to muxer in stream 0: 345 >= 283
[null @ 0000020ce46e4100] Application provided invalid, non monotonically increasing dts to muxer in stream 0: 345 >= 284
[null @ 0000020ce46e4100] Application provided invalid, non monotonically increasing dts to muxer in stream 0: 345 >= 285
[null @ 0000020ce46e4100] Application provided invalid, non monotonically increasing dts to muxer in stream 0: 345 >= 286
[null @ 0000020ce46e4100] Application provided invalid, non monotonically increasing dts to muxer in stream 0: 345 >= 287
[null @ 0000020ce46e4100] Application provided invalid, non monotonically increasing dts to muxer in stream 0: 345 >= 288
[null @ 0000020ce46e4100] Application provided invalid, non monotonically increasing dts to muxer in stream 0: 345 >= 289
[null @ 0000020ce46e4100] Application provided invalid, non monotonically increasing dts to muxer in stream 0: 345 >= 290
[null @ 0000020ce46e4100] Application provided invalid, non monotonically increasing dts to muxer in stream 0: 345 >= 291
[null @ 0000020ce46e4100] Application provided invalid, non monotonically increasing dts to muxer in stream 0: 345 >= 292
[null @ 0000020ce46e4100] Application provided invalid, non monotonically increasing dts to muxer in stream 0: 345 >= 293
[null @ 0000020ce46e4100] Application provided invalid, non monotonically increasing dts to muxer in stream 0: 345 >= 294
[null @ 0000020ce46e4100] Application provided invalid, non monotonically increasing dts to muxer in stream 0: 345 >= 295
[null @ 0000020ce46e4100] Application provided invalid, non monotonically increasing dts to muxer in stream 0: 345 >= 296
[null @ 0000020ce46e4100] Application provided invalid, non monotonically increasing dts to muxer in stream 0: 345 >= 297
[null @ 0000020ce46e4100] Application provided invalid, non monotonically increasing dts to muxer in stream 0: 345 >= 298
[null @ 0000020ce46e4100] Application provided invalid, non monotonically increasing dts to muxer in stream 0: 345 >= 299
[null @ 0000020ce46e4100] Application provided invalid, non monotonically increasing dts to muxer in stream 0: 345 >= 300
[null @ 0000020ce46e4100] Application provided invalid, non monotonically increasing dts to muxer in stream 0: 345 >= 301
[null @ 0000020ce46e4100] Application provided invalid, non monotonically increasing dts to muxer in stream 0: 345 >= 302
[null @ 0000020ce46e4100] Application provided invalid, non monotonically increasing dts to muxer in stream 0: 345 >= 303
[null @ 0000020ce46e4100] Application provided invalid, non monotonically increasing dts to muxer in stream 0: 345 >= 304
[null @ 0000020ce46e4100] Application provided invalid, non monotonically increasing dts to muxer in stream 0: 345 >= 305
[null @ 0000020ce46e4100] Application provided invalid, non monotonically increasing dts to muxer in stream 0: 345 >= 306
[null @ 0000020ce46e4100] Application provided invalid, non monotonically increasing dts to muxer in stream 0: 345 >= 307
[null @ 0000020ce46e4100] Application provided invalid, non monotonically increasing dts to muxer in stream 0: 345 >= 308
[null @ 0000020ce46e4100] Application provided invalid, non monotonically increasing dts to muxer in stream 0: 345 >= 309
[null @ 0000020ce46e4100] Application provided invalid, non monotonically increasing dts to muxer in stream 0: 345 >= 310
[null @ 0000020ce46e4100] Application provided invalid, non monotonically increasing dts to muxer in stream 0: 345 >= 311
[null @ 0000020ce46e4100] Application provided invalid, non monotonically increasing dts to muxer in stream 0: 345 >= 312
[null @ 0000020ce46e4100] Application provided invalid, non monotonically increasing dts to muxer in stream 0: 345 >= 313
[null @ 0000020ce46e4100] Application provided invalid, non monotonically increasing dts to muxer in stream 0: 345 >= 314
[null @ 0000020ce46e4100] Application provided invalid, non monotonically increasing dts to muxer in stream 0: 345 >= 315
[null @ 0000020ce46e4100] Application provided invalid, non monotonically increasing dts to muxer in stream 0: 345 >= 316
[null @ 0000020ce46e4100] Application provided invalid, non monotonically increasing dts to muxer in stream 0: 345 >= 317
[null @ 0000020ce46e4100] Application provided invalid, non monotonically increasing dts to muxer in stream 0: 345 >= 318
[null @ 0000020ce46e4100] Application provided invalid, non monotonically increasing dts to muxer in stream 0: 345 >= 319
[null @ 0000020ce46e4100] Application provided invalid, non monotonically increasing dts to muxer in stream 0: 345 >= 320
[null @ 0000020ce46e4100] Application provided invalid, non monotonically increasing dts to muxer in stream 0: 345 >= 321
[null @ 0000020ce46e4100] Application provided invalid, non monotonically increasing dts to muxer in stream 0: 345 >= 322
[null @ 0000020ce46e4100] Application provided invalid, non monotonically increasing dts to muxer in stream 0: 345 >= 323
[null @ 0000020ce46e4100] Application provided invalid, non monotonically increasing dts to muxer in stream 0: 345 >= 324
[null @ 0000020ce46e4100] Application provided invalid, non monotonically increasing dts to muxer in stream 0: 345 >= 325
[null @ 0000020ce46e4100] Application provided invalid, non monotonically increasing dts to muxer in stream 0: 345 >= 326
[null @ 0000020ce46e4100] Application provided invalid, non monotonically increasing dts to muxer in stream 0: 345 >= 327
[null @ 0000020ce46e4100] Application provided invalid, non monotonically increasing dts to muxer in stream 0: 345 >= 328
[null @ 0000020ce46e4100] Application provided invalid, non monotonically increasing dts to muxer in stream 0: 345 >= 329
[null @ 0000020ce46e4100] Application provided invalid, non monotonically increasing dts to muxer in stream 0: 345 >= 330
[null @ 0000020ce46e4100] Application provided invalid, non monotonically increasing dts to muxer in stream 0: 345 >= 331
[null @ 0000020ce46e4100] Application provided invalid, non monotonically increasing dts to muxer in stream 0: 345 >= 332
[null @ 0000020ce46e4100] Application provided invalid, non monotonically increasing dts to muxer in stream 0: 345 >= 333
[null @ 0000020ce46e4100] Application provided invalid, non monotonically increasing dts to muxer in stream 0: 345 >= 334
[null @ 0000020ce46e4100] Application provided invalid, non monotonically increasing dts to muxer in stream 0: 345 >= 335
[null @ 0000020ce46e4100] Application provided invalid, non monotonically increasing dts to muxer in stream 0: 345 >= 336
[null @ 0000020ce46e4100] Application provided invalid, non monotonically increasing dts to muxer in stream 0: 345 >= 337
[null @ 0000020ce46e4100] Application provided invalid, non monotonically increasing dts to muxer in stream 0: 345 >= 338
[null @ 0000020ce46e4100] Application provided invalid, non monotonically increasing dts to muxer in stream 0: 345 >= 339
[null @ 0000020ce46e4100] Application provided invalid, non monotonically increasing dts to muxer in stream 0: 345 >= 340
[null @ 0000020ce46e4100] Application provided invalid, non monotonically increasing dts to muxer in stream 0: 345 >= 341
[null @ 0000020ce46e4100] Application provided invalid, non monotonically increasing dts to muxer in stream 0: 345 >= 342
[null @ 0000020ce46e4100] Application provided invalid, non monotonically increasing dts to muxer in stream 0: 345 >= 343
[null @ 0000020ce46e4100] Application provided invalid, non monotonically increasing dts to muxer in stream 0: 345 >= 344
[null @ 0000020ce46e4100] Application provided invalid, non monotonically increasing dts to muxer in stream 0: 345 >= 345
frame=  703 fps=124 q=-0.0 size=N/A time=00:00:14.88 bitrate=N/A speed=2.63x    frame=  964 fps=156 q=-0.0 size=N/A time=00:00:25.77 bitrate=N/A speed=4.17x    frame= 1218 fps=182 q=-0.0 size=N/A time=00:00:36.36 bitrate=N/A speed=5.42x    frame= 1431 fps=198 q=-0.0 size=N/A time=00:00:45.25 bitrate=N/A speed=6.27x    frame= 1576 fps=204 q=-0.0 size=N/A time=00:00:51.30 bitrate=N/A speed=6.63x    frame= 1744 fps=212 q=-0.0 size=N/A time=00:00:58.30 bitrate=N/A speed=7.07x    frame= 1934 fps=221 q=-0.0 size=N/A time=00:01:06.23 bitrate=N/A speed=7.55x    frame= 2093 fps=226 q=-0.0 size=N/A time=00:01:12.86 bitrate=N/A speed=7.86x    frame= 2257 fps=230 q=-0.0 size=N/A time=00:01:19.70 bitrate=N/A speed=8.13x    frame= 2410 fps=234 q=-0.0 size=N/A time=00:01:26.08 bitrate=N/A speed=8.35x    frame= 2570 fps=237 q=-0.0 size=N/A time=00:01:32.75 bitrate=N/A speed=8.57x    frame= 2733 fps=241 q=-0.0 size=N/A time=00:01:39.55 bitrate=N/A speed=8.77x    frame= 2896 fps=244 q=-0.0 size=N/A time=00:01:46.35 bitrate=N/A speed=8.97x    frame= 3021 fps=244 q=-0.0 size=N/A time=00:01:51.56 bitrate=N/A speed=9.01x    frame= 3191 fps=248 q=-0.0 size=N/A time=00:01:58.66 bitrate=N/A speed=9.21x    frame= 3344 fps=249 q=-0.0 size=N/A time=00:02:05.04 bitrate=N/A speed=9.32x    frame= 3552 fps=255 q=-0.0 size=N/A time=00:02:13.71 bitrate=N/A speed=9.61x    frame= 3685 fps=255 q=-0.0 size=N/A time=00:02:19.26 bitrate=N/A speed=9.64x    frame= 3861 fps=258 q=-0.0 size=N/A time=00:02:26.60 bitrate=N/A speed=9.81x    frame= 4089 fps=264 q=-0.0 size=N/A time=00:02:36.11 bitrate=N/A speed=10.1x    frame= 4314 fps=270 q=-0.0 size=N/A time=00:02:45.49 bitrate=N/A speed=10.4x    frame= 4509 fps=273 q=-0.0 size=N/A time=00:02:53.63 bitrate=N/A speed=10.5x    frame= 4740 fps=279 q=-0.0 size=N/A time=00:03:03.26 bitrate=N/A speed=10.8x    frame= 4997 fps=285 q=-0.0 size=N/A time=00:03:13.98 bitrate=N/A speed=11.1x    frame= 5220 fps=289 q=-0.0 size=N/A time=00:03:23.28 bitrate=N/A speed=11.3x    frame= 5456 fps=294 q=-0.0 size=N/A time=00:03:33.12 bitrate=N/A speed=11.5x    frame= 5674 fps=297 q=-0.0 size=N/A time=00:03:42.22 bitrate=N/A speed=11.6x    frame= 5881 fps=300 q=-0.0 size=N/A time=00:03:50.85 bitrate=N/A speed=11.8x    frame= 6133 fps=305 q=-0.0 size=N/A time=00:04:01.36 bitrate=N/A speed=  12x    frame= 6371 fps=309 q=-0.0 size=N/A time=00:04:11.29 bitrate=N/A speed=12.2x    frame= 6571 fps=311 q=-0.0 size=N/A time=00:04:19.63 bitrate=N/A speed=12.3x    frame= 6798 fps=314 q=-0.0 size=N/A time=00:04:29.10 bitrate=N/A speed=12.4x    frame= 7064 fps=319 q=-0.0 size=N/A time=00:04:40.19 bitrate=N/A speed=12.6x    frame= 7288 fps=321 q=-0.0 size=N/A time=00:04:49.53 bitrate=N/A speed=12.8x    frame= 7534 fps=325 q=-0.0 size=N/A time=00:04:59.79 bitrate=N/A speed=12.9x    frame= 7734 fps=326 q=-0.0 size=N/A time=00:05:08.14 bitrate=N/A speed=  13x    frame= 7969 fps=329 q=-0.0 size=N/A time=00:05:17.94 bitrate=N/A speed=13.1x    frame= 8223 fps=332 q=-0.0 size=N/A time=00:05:28.53 bitrate=N/A speed=13.3x    frame= 8380 fps=332 q=-0.0 size=N/A time=00:05:35.08 bitrate=N/A speed=13.3x    frame= 8504 fps=330 q=-0.0 size=N/A time=00:05:40.25 bitrate=N/A speed=13.2x    frame= 8693 fps=330 q=-0.0 size=N/A time=00:05:48.13 bitrate=N/A speed=13.2x    frame= 8868 fps=331 q=-0.0 size=N/A time=00:05:55.43 bitrate=N/A speed=13.3x    frame= 9042 fps=331 q=-0.0 size=N/A time=00:06:02.69 bitrate=N/A speed=13.3x    frame= 9279 fps=333 q=-0.0 size=N/A time=00:06:12.58 bitrate=N/A speed=13.4x    frame= 9518 fps=336 q=-0.0 size=N/A time=00:06:22.54 bitrate=N/A speed=13.5x    frame= 9736 fps=337 q=-0.0 size=N/A time=00:06:31.64 bitrate=N/A speed=13.6x    frame= 9962 fps=339 q=-0.0 size=N/A time=00:06:41.06 bitrate=N/A speed=13.6x    frame=10152 fps=339 q=-0.0 size=N/A time=00:06:48.99 bitrate=N/A speed=13.7x    frame=10397 fps=342 q=-0.0 size=N/A time=00:06:59.21 bitrate=N/A speed=13.8x    frame=10635 fps=344 q=-0.0 size=N/A time=00:07:09.13 bitrate=N/A speed=13.9x    frame=10830 fps=344 q=-0.0 size=N/A time=00:07:17.27 bitrate=N/A speed=13.9x    frame=11017 fps=345 q=-0.0 size=N/A time=00:07:25.06 bitrate=N/A speed=13.9x    frame=11275 fps=347 q=-0.0 size=N/A time=00:07:35.83 bitrate=N/A speed=  14x    frame=11503 fps=349 q=-0.0 size=N/A time=00:07:45.33 bitrate=N/A speed=14.1x    frame=11736 fps=350 q=-0.0 size=N/A time=00:07:55.05 bitrate=N/A speed=14.2x    frame=11941 fps=351 q=-0.0 size=N/A time=00:08:03.60 bitrate=N/A speed=14.2x    frame=12162 fps=352 q=-0.0 size=N/A time=00:08:12.82 bitrate=N/A speed=14.3x    frame=12392 fps=353 q=-0.0 size=N/A time=00:08:22.41 bitrate=N/A speed=14.3x    frame=12619 fps=355 q=-0.0 size=N/A time=00:08:31.88 bitrate=N/A speed=14.4x    frame=12879 fps=357 q=-0.0 size=N/A time=00:08:42.73 bitrate=N/A speed=14.5x    frame=13114 fps=358 q=-0.0 size=N/A time=00:08:52.53 bitrate=N/A speed=14.5x    frame=13348 fps=360 q=-0.0 size=N/A time=00:09:02.29 bitrate=N/A speed=14.6x    frame=13580 fps=361 q=-0.0 size=N/A time=00:09:11.96 bitrate=N/A speed=14.7x    frame=13809 fps=362 q=-0.0 size=N/A time=00:09:21.51 bitrate=N/A speed=14.7x    frame=14026 fps=363 q=-0.0 size=N/A time=00:09:30.57 bitrate=N/A speed=14.8x    frame=14253 fps=364 q=-0.0 size=N/A time=00:09:40.03 bitrate=N/A speed=14.8x    frame=14481 fps=365 q=-0.0 size=N/A time=00:09:49.54 bitrate=N/A speed=14.9x    frame=14714 fps=366 q=-0.0 size=N/A time=00:09:59.26 bitrate=N/A speed=14.9x    frame=14971 fps=368 q=-0.0 size=N/A time=00:10:09.98 bitrate=N/A speed=  15x    frame=15184 fps=368 q=-0.0 size=N/A time=00:10:18.86 bitrate=N/A speed=  15x    frame=15351 fps=368 q=-0.0 size=N/A time=00:10:25.83 bitrate=N/A speed=  15x    frame=15553 fps=368 q=-0.0 size=N/A time=00:10:34.25 bitrate=N/A speed=  15x    frame=15781 fps=369 q=-0.0 size=N/A time=00:10:43.76 bitrate=N/A speed=  15x    frame=16033 fps=370 q=-0.0 size=N/A time=00:10:54.27 bitrate=N/A speed=15.1x    frame=16295 fps=372 q=-0.0 size=N/A time=00:11:05.20 bitrate=N/A speed=15.2x    frame=16561 fps=374 q=-0.0 size=N/A time=00:11:16.30 bitrate=N/A speed=15.3x    frame=16763 fps=374 q=-0.0 size=N/A time=00:11:24.72 bitrate=N/A speed=15.3x    frame=16937 fps=373 q=-0.0 size=N/A time=00:11:31.98 bitrate=N/A speed=15.2x    frame=17113 fps=373 q=-0.0 size=N/A time=00:11:39.32 bitrate=N/A speed=15.2x    frame=17374 fps=374 q=-0.0 size=N/A time=00:11:50.20 bitrate=N/A speed=15.3x    frame=17625 fps=376 q=-0.0 size=N/A time=00:12:00.67 bitrate=N/A speed=15.4x    frame=17886 fps=377 q=-0.0 size=N/A time=00:12:11.56 bitrate=N/A speed=15.4x    frame=18111 fps=378 q=-0.0 size=N/A time=00:12:20.94 bitrate=N/A speed=15.5x    frame=18359 fps=379 q=-0.0 size=N/A time=00:12:31.29 bitrate=N/A speed=15.5x    frame=18612 fps=380 q=-0.0 size=N/A time=00:12:41.84 bitrate=N/A speed=15.6x    frame=18880 fps=381 q=-0.0 size=N/A time=00:12:53.02 bitrate=N/A speed=15.6x    frame=19123 fps=382 q=-0.0 size=N/A time=00:13:03.15 bitrate=N/A speed=15.7x    frame=19384 fps=384 q=-0.0 size=N/A time=00:13:14.04 bitrate=N/A speed=15.7x    frame=19633 fps=385 q=-0.0 size=N/A time=00:13:24.42 bitrate=N/A speed=15.8x    frame=19812 fps=384 q=-0.0 size=N/A time=00:13:31.89 bitrate=N/A speed=15.7x    frame=20010 fps=384 q=-0.0 size=N/A time=00:13:40.15 bitrate=N/A speed=15.7x    frame=20246 fps=385 q=-0.0 size=N/A time=00:13:49.99 bitrate=N/A speed=15.8x    frame=20441 fps=385 q=-0.0 size=N/A time=00:13:58.12 bitrate=N/A speed=15.8x    frame=20628 fps=385 q=-0.0 size=N/A time=00:14:05.92 bitrate=N/A speed=15.8x    frame=20838 fps=385 q=-0.0 size=N/A time=00:14:14.68 bitrate=N/A speed=15.8x    frame=21050 fps=385 q=-0.0 size=N/A time=00:14:23.52 bitrate=N/A speed=15.8x    frame=21268 fps=386 q=-0.0 size=N/A time=00:14:32.62 bitrate=N/A speed=15.8x    frame=21505 fps=386 q=-0.0 size=N/A time=00:14:42.50 bitrate=N/A speed=15.8x    frame=21739 fps=387 q=-0.0 size=N/A time=00:14:52.26 bitrate=N/A speed=15.9x    frame=21977 fps=387 q=-0.0 size=N/A time=00:15:02.19 bitrate=N/A speed=15.9x    frame=22196 fps=388 q=-0.0 size=N/A time=00:15:11.32 bitrate=N/A speed=15.9x    frame=22413 fps=388 q=-0.0 size=N/A time=00:15:20.37 bitrate=N/A speed=15.9x    frame=22643 fps=389 q=-0.0 size=N/A time=00:15:29.97 bitrate=N/A speed=  16x    frame=22830 fps=388 q=-0.0 size=N/A time=00:15:37.77 bitrate=N/A speed=  16x    frame=23067 fps=389 q=-0.0 size=N/A time=00:15:47.65 bitrate=N/A speed=  16x    frame=23272 fps=389 q=-0.0 size=N/A time=00:15:56.20 bitrate=N/A speed=  16x    frame=23471 fps=389 q=-0.0 size=N/A time=00:16:04.50 bitrate=N/A speed=  16x    frame=23659 fps=389 q=-0.0 size=N/A time=00:16:12.34 bitrate=N/A speed=  16x    frame=23843 fps=389 q=-0.0 size=N/A time=00:16:20.02 bitrate=N/A speed=  16x    frame=24040 fps=389 q=-0.0 size=N/A time=00:16:28.23 bitrate=N/A speed=  16x    frame=24265 fps=389 q=-0.0 size=N/A time=00:16:37.62 bitrate=N/A speed=  16x    frame=24486 fps=389 q=-0.0 size=N/A time=00:16:46.83 bitrate=N/A speed=  16x    frame=24681 fps=389 q=-0.0 size=N/A time=00:16:54.97 bitrate=N/A speed=  16x    frame=24857 fps=389 q=-0.0 size=N/A time=00:17:02.31 bitrate=N/A speed=  16x    frame=25059 fps=389 q=-0.0 size=N/A time=00:17:10.73 bitrate=N/A speed=  16x    frame=25269 fps=389 q=-0.0 size=N/A time=00:17:19.49 bitrate=N/A speed=  16x    frame=25475 fps=389 q=-0.0 size=N/A time=00:17:28.08 bitrate=N/A speed=  16x    frame=25695 fps=389 q=-0.0 size=N/A time=00:17:37.30 bitrate=N/A speed=  16x    frame=25952 fps=390 q=-0.0 size=N/A time=00:17:47.98 bitrate=N/A speed=16.1x    frame=26199 fps=391 q=-0.0 size=N/A time=00:17:58.28 bitrate=N/A speed=16.1x    frame=26403 fps=391 q=-0.0 size=N/A time=00:18:06.79 bitrate=N/A speed=16.1x    frame=26630 fps=391 q=-0.0 size=N/A time=00:18:16.26 bitrate=N/A speed=16.1x    frame=26822 fps=391 q=-0.0 size=N/A time=00:18:24.26 bitrate=N/A speed=16.1x    frame=27028 fps=391 q=-0.0 size=N/A time=00:18:32.86 bitrate=N/A speed=16.1x    frame=27246 fps=391 q=-0.0 size=N/A time=00:18:41.95 bitrate=N/A speed=16.1x    frame=27448 fps=391 q=-0.0 size=N/A time=00:18:50.37 bitrate=N/A speed=16.1x    frame=27662 fps=392 q=-0.0 size=N/A time=00:18:59.30 bitrate=N/A speed=16.1x    frame=27873 fps=392 q=-0.0 size=N/A time=00:19:08.14 bitrate=N/A speed=16.1x    frame=28074 fps=392 q=-0.0 size=N/A time=00:19:16.48 bitrate=N/A speed=16.1x    frame=28304 fps=392 q=-0.0 size=N/A time=00:19:26.08 bitrate=N/A speed=16.2x    frame=28540 fps=392 q=-0.0 size=N/A time=00:19:35.92 bitrate=N/A speed=16.2x    frame=28795 fps=393 q=-0.0 size=N/A time=00:19:46.56 bitrate=N/A speed=16.2x    frame=29011 fps=393 q=-0.0 size=N/A time=00:19:55.56 bitrate=N/A speed=16.2x    frame=29211 fps=393 q=-0.0 size=N/A time=00:20:03.91 bitrate=N/A speed=16.2x    frame=29416 fps=393 q=-0.0 size=N/A time=00:20:12.46 bitrate=N/A speed=16.2x    frame=29565 fps=393 q=-0.0 size=N/A time=00:20:18.67 bitrate=N/A speed=16.2x    frame=29756 fps=393 q=-0.0 size=N/A time=00:20:26.64 bitrate=N/A speed=16.2x    frame=29997 fps=393 q=-0.0 size=N/A time=00:20:36.69 bitrate=N/A speed=16.2x    frame=30232 fps=393 q=-0.0 size=N/A time=00:20:46.49 bitrate=N/A speed=16.2x    frame=30445 fps=394 q=-0.0 size=N/A time=00:20:55.37 bitrate=N/A speed=16.2x    frame=30664 fps=394 q=-0.0 size=N/A time=00:21:04.51 bitrate=N/A speed=16.2x    frame=30904 fps=394 q=-0.0 size=N/A time=00:21:14.52 bitrate=N/A speed=16.3x    frame=31127 fps=394 q=-0.0 size=N/A time=00:21:23.82 bitrate=N/A speed=16.3x    frame=31303 fps=394 q=-0.0 size=N/A time=00:21:31.16 bitrate=N/A speed=16.3x    frame=31468 fps=394 q=-0.0 size=N/A time=00:21:38.04 bitrate=N/A speed=16.2x    frame=31623 fps=393 q=-0.0 size=N/A time=00:21:44.51 bitrate=N/A speed=16.2x    frame=31765 fps=392 q=-0.0 size=N/A time=00:21:50.43 bitrate=N/A speed=16.2x    frame=31927 fps=392 q=-0.0 size=N/A time=00:21:57.19 bitrate=N/A speed=16.2x    frame=32137 fps=392 q=-0.0 size=N/A time=00:22:05.94 bitrate=N/A speed=16.2x    frame=32319 fps=392 q=-0.0 size=N/A time=00:22:13.54 bitrate=N/A speed=16.2x    frame=32481 fps=391 q=-0.0 size=N/A time=00:22:20.29 bitrate=N/A speed=16.1x    frame=32647 fps=391 q=-0.0 size=N/A time=00:22:27.22 bitrate=N/A speed=16.1x    frame=32826 fps=390 q=-0.0 size=N/A time=00:22:34.68 bitrate=N/A speed=16.1x    frame=33039 fps=391 q=-0.0 size=N/A time=00:22:43.57 bitrate=N/A speed=16.1x    [Parsed_psnr_10 @ 0000020ce476a480] PSNR y:19.824798 u:28.782325 v:28.534041 average:21.310442 min:3.581037 max:68.517257
[out#0/null @ 0000020ce46e4a40] video:14263KiB audio:259628KiB subtitle:0KiB other streams:0KiB global headers:0KiB muxing overhead: unknown
frame=33195 fps=391 q=-0.0 Lsize=N/A time=00:22:50.07 bitrate=N/A speed=16.1x    
